<svg xmlns="http://www.w3.org/2000/svg" xmlns:xlink="http://www.w3.org/1999/xlink" width="500" zoomAndPan="magnify" viewBox="0 0 375 374.999991" height="500" preserveAspectRatio="xMidYMid meet" version="1.0"><defs><clipPath id="5ea969a0ef"><path d="M 187.5 0 C 83.945312 0 0 83.945312 0 187.5 C 0 291.054688 83.945312 375 187.5 375 C 291.054688 375 375 291.054688 375 187.5 C 375 83.945312 291.054688 0 187.5 0 Z M 187.5 0 " clip-rule="nonzero"/></clipPath><clipPath id="8d7fef3484"><path d="M 37 29 L 341 29 L 341 343 L 37 343 Z M 37 29 " clip-rule="nonzero"/></clipPath><clipPath id="576d408f6d"><path d="M 224.25 -15.574219 L 385.578125 129.179688 L 154.175781 387.082031 L -7.152344 242.328125 Z M 224.25 -15.574219 " clip-rule="nonzero"/></clipPath><clipPath id="8de622dfc4"><path d="M 224.25 -15.574219 L 385.578125 129.179688 L 154.175781 387.082031 L -7.152344 242.328125 Z M 224.25 -15.574219 " clip-rule="nonzero"/></clipPath><clipPath id="97b27c0bcd"><path d="M 254 52 L 310 52 L 310 112 L 254 112 Z M 254 52 " clip-rule="nonzero"/></clipPath><clipPath id="58ea0f41c3"><path d="M 224.25 -15.574219 L 385.578125 129.179688 L 154.175781 387.082031 L -7.152344 242.328125 Z M 224.25 -15.574219 " clip-rule="nonzero"/></clipPath><clipPath id="3176627ea4"><path d="M 224.25 -15.574219 L 385.578125 129.179688 L 154.175781 387.082031 L -7.152344 242.328125 Z M 224.25 -15.574219 " clip-rule="nonzero"/></clipPath><clipPath id="a2987bbea1"><path d="M 292 52 L 310 52 L 310 70 L 292 70 Z M 292 52 " clip-rule="nonzero"/></clipPath><clipPath id="87cc9394d1"><path d="M 224.25 -15.574219 L 385.578125 129.179688 L 154.175781 387.082031 L -7.152344 242.328125 Z M 224.25 -15.574219 " clip-rule="nonzero"/></clipPath><clipPath id="bd69f97d2f"><path d="M 224.25 -15.574219 L 385.578125 129.179688 L 154.175781 387.082031 L -7.152344 242.328125 Z M 224.25 -15.574219 " clip-rule="nonzero"/></clipPath><clipPath id="6ad4f64033"><path d="M 217 185 L 253 185 L 253 311 L 217 311 Z M 217 185 " clip-rule="nonzero"/></clipPath><clipPath id="daf5907b30"><path d="M 224.25 -15.574219 L 385.578125 129.179688 L 154.175781 387.082031 L -7.152344 242.328125 Z M 224.25 -15.574219 " clip-rule="nonzero"/></clipPath><clipPath id="62897e3a3a"><path d="M 224.25 -15.574219 L 385.578125 129.179688 L 154.175781 387.082031 L -7.152344 242.328125 Z M 224.25 -15.574219 " clip-rule="nonzero"/></clipPath><clipPath id="b62737243e"><path d="M 213 262 L 250 262 L 250 311 L 213 311 Z M 213 262 " clip-rule="nonzero"/></clipPath><clipPath id="1c5edca039"><path d="M 224.25 -15.574219 L 385.578125 129.179688 L 154.175781 387.082031 L -7.152344 242.328125 Z M 224.25 -15.574219 " clip-rule="nonzero"/></clipPath><clipPath id="72c6f8d629"><path d="M 224.25 -15.574219 L 385.578125 129.179688 L 154.175781 387.082031 L -7.152344 242.328125 Z M 224.25 -15.574219 " clip-rule="nonzero"/></clipPath><clipPath id="a95442e0e2"><path d="M 61 128 L 185 128 L 185 171 L 61 171 Z M 61 128 " clip-rule="nonzero"/></clipPath><clipPath id="adac95f74b"><path d="M 224.25 -15.574219 L 385.578125 129.179688 L 154.175781 387.082031 L -7.152344 242.328125 Z M 224.25 -15.574219 " clip-rule="nonzero"/></clipPath><clipPath id="b8067df0da"><path d="M 224.25 -15.574219 L 385.578125 129.179688 L 154.175781 387.082031 L -7.152344 242.328125 Z M 224.25 -15.574219 " clip-rule="nonzero"/></clipPath><clipPath id="4c46c30beb"><path d="M 61 133 L 107 133 L 107 175 L 61 175 Z M 61 133 " clip-rule="nonzero"/></clipPath><clipPath id="dc42a4fa56"><path d="M 224.25 -15.574219 L 385.578125 129.179688 L 154.175781 387.082031 L -7.152344 242.328125 Z M 224.25 -15.574219 " clip-rule="nonzero"/></clipPath><clipPath id="9907dff2d5"><path d="M 224.25 -15.574219 L 385.578125 129.179688 L 154.175781 387.082031 L -7.152344 242.328125 Z M 224.25 -15.574219 " clip-rule="nonzero"/></clipPath><clipPath id="75a2b584ab"><path d="M 172 99 L 270 99 L 270 201 L 172 201 Z M 172 99 " clip-rule="nonzero"/></clipPath><clipPath id="e04a1461dc"><path d="M 224.25 -15.574219 L 385.578125 129.179688 L 154.175781 387.082031 L -7.152344 242.328125 Z M 224.25 -15.574219 " clip-rule="nonzero"/></clipPath><clipPath id="29ff0fe6b2"><path d="M 224.25 -15.574219 L 385.578125 129.179688 L 154.175781 387.082031 L -7.152344 242.328125 Z M 224.25 -15.574219 " clip-rule="nonzero"/></clipPath><clipPath id="ee25ff3a1a"><path d="M 247 103 L 264 103 L 264 120 L 247 120 Z M 247 103 " clip-rule="nonzero"/></clipPath><clipPath id="6f9f2cf03a"><path d="M 224.25 -15.574219 L 385.578125 129.179688 L 154.175781 387.082031 L -7.152344 242.328125 Z M 224.25 -15.574219 " clip-rule="nonzero"/></clipPath><clipPath id="d21394fdb4"><path d="M 224.25 -15.574219 L 385.578125 129.179688 L 154.175781 387.082031 L -7.152344 242.328125 Z M 224.25 -15.574219 " clip-rule="nonzero"/></clipPath><clipPath id="f8449ca690"><path d="M 214 177 L 231 177 L 231 195 L 214 195 Z M 214 177 " clip-rule="nonzero"/></clipPath><clipPath id="dd340a4b03"><path d="M 224.25 -15.574219 L 385.578125 129.179688 L 154.175781 387.082031 L -7.152344 242.328125 Z M 224.25 -15.574219 " clip-rule="nonzero"/></clipPath><clipPath id="8790afd6b1"><path d="M 224.25 -15.574219 L 385.578125 129.179688 L 154.175781 387.082031 L -7.152344 242.328125 Z M 224.25 -15.574219 " clip-rule="nonzero"/></clipPath><clipPath id="e508aa088a"><path d="M 177 144 L 194 144 L 194 161 L 177 161 Z M 177 144 " clip-rule="nonzero"/></clipPath><clipPath id="10c1179a3d"><path d="M 224.25 -15.574219 L 385.578125 129.179688 L 154.175781 387.082031 L -7.152344 242.328125 Z M 224.25 -15.574219 " clip-rule="nonzero"/></clipPath><clipPath id="4482b23f4e"><path d="M 224.25 -15.574219 L 385.578125 129.179688 L 154.175781 387.082031 L -7.152344 242.328125 Z M 224.25 -15.574219 " clip-rule="nonzero"/></clipPath></defs><g clip-path="url(#5ea969a0ef)"><rect x="-37.5" width="450" fill="#17afef" y="-37.499999" height="449.999989" fill-opacity="1"/></g><g clip-path="url(#8d7fef3484)"><g clip-path="url(#576d408f6d)"><g clip-path="url(#8de622dfc4)"><path fill="#ffffff" d="M 217.414062 298.304688 C 199.652344 318.089844 175.609375 328.78125 151 330.121094 C 126.390625 331.445312 101.332031 323.414062 81.542969 305.660156 C 61.753906 287.902344 51.0625 263.859375 49.722656 239.25 C 48.40625 214.808594 56.320312 189.921875 73.820312 170.191406 L 70.203125 174.222656 L 61.457031 166.375 C 44.21875 187.824219 36.425781 214.132812 37.828125 239.894531 C 39.316406 267.5 51.371094 294.59375 73.578125 314.519531 C 73.582031 314.523438 73.585938 314.523438 73.589844 314.527344 C 95.796875 334.457031 124.03125 343.519531 151.644531 342.015625 C 177.40625 340.628906 202.71875 330.039062 222.179688 310.582031 L 213.4375 302.738281 L 217.414062 298.304688 M 309.222656 60.824219 L 301.253906 69.703125 C 318.285156 86.96875 327.523438 109.246094 328.761719 132.003906 C 330.085938 156.613281 322.054688 181.671875 304.300781 201.464844 L 249.644531 262.382812 C 245.75 278.226562 237.761719 293.445312 226.277344 306.257812 L 313.167969 209.417969 C 333.097656 187.210938 342.15625 158.96875 340.652344 131.359375 C 339.265625 105.597656 328.675781 80.28125 309.222656 60.824219 M 300.355469 52.871094 C 278.910156 35.628906 252.601562 27.835938 226.839844 29.238281 C 199.226562 30.726562 172.132812 42.785156 152.207031 64.996094 L 65.316406 161.835938 C 76.8125 149.027344 91.082031 139.453125 106.414062 133.867188 L 161.070312 72.949219 C 178.828125 53.160156 202.875 42.46875 227.484375 41.128906 C 250.238281 39.90625 273.382812 46.683594 292.390625 61.75 L 300.355469 52.871094 " fill-opacity="1" fill-rule="nonzero"/></g></g></g><g clip-path="url(#97b27c0bcd)"><g clip-path="url(#58ea0f41c3)"><g clip-path="url(#3176627ea4)"><path fill="#ffffff" d="M 296.941406 65.59375 C 295.453125 64.253906 293.9375 62.976562 292.390625 61.75 L 254.894531 103.539062 C 256.578125 104.546875 258.195312 105.730469 259.707031 107.089844 C 259.710938 107.09375 259.714844 107.097656 259.71875 107.097656 C 261.226562 108.453125 262.574219 109.929688 263.757812 111.496094 L 301.253906 69.703125 C 299.867188 68.296875 298.429688 66.925781 296.941406 65.59375 M 309.328125 60.703125 L 300.464844 52.75 L 300.355469 52.871094 C 301.894531 54.105469 303.410156 55.390625 304.898438 56.726562 C 304.902344 56.730469 304.902344 56.730469 304.90625 56.734375 C 306.390625 58.066406 307.828125 59.429688 309.222656 60.824219 L 309.328125 60.703125 " fill-opacity="1" fill-rule="nonzero"/></g></g></g><g clip-path="url(#a2987bbea1)"><g clip-path="url(#87cc9394d1)"><g clip-path="url(#bd69f97d2f)"><path fill="#ffffff" d="M 304.90625 56.734375 C 304.902344 56.730469 304.898438 56.730469 304.894531 56.726562 C 303.410156 55.390625 301.894531 54.105469 300.355469 52.867188 L 292.386719 61.75 C 293.933594 62.976562 295.453125 64.253906 296.941406 65.589844 C 298.429688 66.925781 299.867188 68.296875 301.253906 69.703125 L 309.222656 60.824219 C 307.828125 59.429688 306.390625 58.066406 304.90625 56.734375 " fill-opacity="1" fill-rule="nonzero"/></g></g></g><g clip-path="url(#6ad4f64033)"><g clip-path="url(#daf5907b30)"><g clip-path="url(#62897e3a3a)"><path fill="#ffffff" d="M 226.277344 306.257812 C 224.945312 307.746094 223.574219 309.1875 222.179688 310.582031 L 222.300781 310.691406 L 226.277344 306.257812 M 230.859375 185.597656 L 226.328125 190.644531 C 225.164062 191.945312 223.910156 193.121094 222.585938 194.179688 C 228.347656 200.269531 232.621094 207.085938 235.558594 214.375 C 240.914062 227.671875 241.785156 242.621094 238.59375 257.304688 C 235.40625 271.984375 228.144531 286.347656 217.414062 298.304688 L 249.644531 262.382812 C 251.21875 255.96875 252.125 249.457031 252.320312 242.957031 C 252.65625 231.679688 250.835938 220.433594 246.605469 209.925781 C 243.074219 201.136719 237.839844 192.871094 230.859375 185.597656 " fill-opacity="1" fill-rule="nonzero"/></g></g></g><g clip-path="url(#b62737243e)"><g clip-path="url(#1c5edca039)"><g clip-path="url(#72c6f8d629)"><path fill="#ffffff" d="M 226.277344 306.257812 L 221.84375 302.28125 L 217.414062 298.304688 L 213.4375 302.734375 L 222.179688 310.582031 C 223.574219 309.1875 224.945312 307.746094 226.277344 306.257812 M 249.644531 262.382812 L 217.414062 298.304688 L 221.84375 302.28125 L 226.277344 306.257812 C 237.761719 293.445312 245.75 278.226562 249.644531 262.382812 " fill-opacity="1" fill-rule="nonzero"/></g></g></g><g clip-path="url(#a95442e0e2)"><g clip-path="url(#adac95f74b)"><g clip-path="url(#b8067df0da)"><path fill="#ffffff" d="M 65.316406 161.835938 L 61.339844 166.265625 L 61.457031 166.375 C 62.695312 164.835938 63.980469 163.320312 65.316406 161.835938 M 74.179688 169.789062 C 74.0625 169.921875 73.941406 170.054688 73.820312 170.191406 L 74.179688 169.789062 M 184.777344 144.25 C 176.785156 138.09375 168.007812 133.785156 158.886719 131.222656 C 142.527344 126.617188 125.136719 127.574219 108.878906 133.003906 C 108.054688 133.28125 107.230469 133.566406 106.410156 133.867188 L 74.179688 169.789062 C 88.480469 153.835938 107.710938 143.578125 127.070312 140.902344 C 136.753906 139.558594 146.457031 140.09375 155.660156 142.683594 C 163.222656 144.816406 170.460938 148.328125 177.136719 153.398438 C 178.042969 151.96875 179.078125 150.59375 180.246094 149.296875 L 184.777344 144.25 " fill-opacity="1" fill-rule="nonzero"/></g></g></g><g clip-path="url(#4c46c30beb)"><g clip-path="url(#dc42a4fa56)"><g clip-path="url(#9907dff2d5)"><path fill="#ffffff" d="M 106.414062 133.867188 C 91.082031 139.453125 76.8125 149.027344 65.316406 161.835938 C 63.980469 163.320312 62.695312 164.835938 61.457031 166.375 L 70.203125 174.222656 L 73.820312 170.1875 C 73.941406 170.054688 74.0625 169.921875 74.183594 169.789062 L 106.414062 133.867188 " fill-opacity="1" fill-rule="nonzero"/></g></g></g><g clip-path="url(#75a2b584ab)"><g clip-path="url(#e04a1461dc)"><g clip-path="url(#29ff0fe6b2)"><path fill="#ffffff" d="M 263.757812 111.496094 L 256.1875 119.933594 L 251.753906 115.957031 C 255.679688 119.480469 257.78125 124.214844 258.054688 129.101562 C 258.308594 133.984375 256.734375 138.917969 253.210938 142.851562 L 217.464844 182.6875 L 217.46875 182.691406 L 222.144531 177.476562 L 226.578125 181.457031 C 226.582031 181.460938 226.585938 181.464844 226.59375 181.46875 C 228.082031 182.808594 229.503906 184.183594 230.859375 185.597656 L 262.078125 150.804688 C 267.777344 144.457031 270.378906 136.347656 269.945312 128.457031 C 269.625 122.445312 267.539062 116.503906 263.757812 111.496094 M 254.894531 103.539062 C 249.503906 100.320312 243.371094 98.890625 237.363281 99.21875 C 229.46875 99.640625 221.6875 103.105469 215.992188 109.457031 L 184.777344 144.25 C 186.335938 145.449219 187.863281 146.71875 189.355469 148.058594 L 193.789062 152.039062 L 185.835938 160.902344 L 181.402344 156.925781 C 180.007812 155.675781 178.585938 154.503906 177.136719 153.398438 C 173.609375 158.957031 172.035156 165.367188 172.382812 171.644531 C 172.804688 179.53125 176.265625 187.308594 182.613281 193.003906 C 182.613281 193.003906 182.617188 193.007812 182.617188 193.007812 C 188.964844 198.703125 197.074219 201.3125 204.964844 200.878906 C 211.238281 200.542969 217.445312 198.285156 222.585938 194.179688 C 221.335938 192.859375 220.015625 191.570312 218.621094 190.320312 L 214.1875 186.34375 L 217.464844 182.691406 C 213.9375 186.617188 209.207031 188.714844 204.320312 188.984375 C 199.433594 189.242188 194.5 187.667969 190.570312 184.144531 C 186.644531 180.617188 184.542969 175.882812 184.273438 170.996094 C 184.011719 166.109375 185.589844 161.179688 189.113281 157.25 L 224.859375 117.410156 C 228.386719 113.484375 233.117188 111.382812 238.003906 111.113281 C 242.890625 110.855469 247.820312 112.429688 251.753906 115.957031 L 247.320312 111.976562 L 254.890625 103.539062 " fill-opacity="1" fill-rule="nonzero"/></g></g></g><g clip-path="url(#ee25ff3a1a)"><g clip-path="url(#6f9f2cf03a)"><g clip-path="url(#d21394fdb4)"><path fill="#ffffff" d="M 259.714844 107.097656 C 259.714844 107.09375 259.710938 107.09375 259.707031 107.089844 C 258.195312 105.730469 256.578125 104.546875 254.894531 103.539062 L 247.320312 111.976562 L 256.1875 119.929688 L 263.757812 111.492188 C 262.574219 109.929688 261.226562 108.453125 259.714844 107.097656 " fill-opacity="1" fill-rule="nonzero"/></g></g></g><g clip-path="url(#f8449ca690)"><g clip-path="url(#dd340a4b03)"><g clip-path="url(#8790afd6b1)"><path fill="#ffffff" d="M 226.332031 190.644531 L 221.898438 186.664062 L 217.464844 182.6875 L 214.1875 186.34375 L 218.621094 190.320312 C 220.015625 191.570312 221.335938 192.859375 222.585938 194.179688 C 223.910156 193.121094 225.164062 191.945312 226.332031 190.644531 M 226.589844 181.46875 C 226.585938 181.464844 226.582031 181.460938 226.574219 181.453125 L 222.140625 177.476562 L 217.464844 182.6875 L 221.898438 186.664062 L 226.328125 190.640625 L 230.859375 185.59375 C 229.503906 184.179688 228.082031 182.804688 226.589844 181.46875 " fill-opacity="1" fill-rule="nonzero"/></g></g></g><g clip-path="url(#e508aa088a)"><g clip-path="url(#10c1179a3d)"><g clip-path="url(#4482b23f4e)"><path fill="#ffffff" d="M 193.789062 152.035156 L 189.355469 148.058594 C 187.859375 146.71875 186.332031 145.449219 184.777344 144.25 L 180.246094 149.296875 C 179.078125 150.59375 178.042969 151.96875 177.132812 153.398438 C 178.582031 154.5 180.003906 155.675781 181.402344 156.925781 L 185.832031 160.902344 L 193.789062 152.035156 " fill-opacity="1" fill-rule="nonzero"/></g></g></g></svg>